<svg xmlns="http://www.w3.org/2000/svg" xmlns:xlink="http://www.w3.org/1999/xlink" contentStyleType="text/css" data-diagram-type="DESCRIPTION" height="1028px" preserveAspectRatio="none" style="width:2287px;height:1028px;background:#FAFBFC;" version="1.1" viewBox="0 0 2287 1028" width="2287px" zoomAndPan="magnify"><?plantuml 1.2026.3beta6?><defs><filter height="300%" id="f1npuduiripj15" width="300%" x="-1" y="-1"><feGaussianBlur result="blurOut" stdDeviation="2"/><feColorMatrix in="blurOut" result="blurOut2" type="matrix" values="0 0 0 0 0 0 0 0 0 0 0 0 0 0 0 0 0 0 .4 0"/><feOffset dx="4" dy="4" in="blurOut2" result="blurOut3"/><feBlend in="SourceGraphic" in2="blurOut3" mode="normal"/></filter></defs><g><rect fill="#FAFBFC" height="1028" style="stroke:none;stroke-width:1;" width="2287" x="0" y="0"/><g class="title" data-source-line="36"><text fill="#000000" font-family="'Microsoft YaHei,Arial,sans-serif'" font-size="18" font-weight="700" lengthAdjust="spacing" textLength="187.8919" x="1046.4294" y="26.708">infra-ai &#27169;&#22359;&#25972;&#20307;&#26550;&#26500;</text><text fill="#78909C" font-family="'Microsoft YaHei,Arial,sans-serif'" font-size="11" font-weight="700" lengthAdjust="spacing" textLength="254.6742" x="1013.0383" y="41.1636">&#19977;&#33021;&#21147;&#32479;&#19968;&#36335;&#30001; &#183; &#20379;&#24212;&#21830;&#21487;&#25554;&#25300; &#183; &#29076;&#26029;&#33258;&#21160;&#25925;&#38556;&#36716;&#31227;</text></g><!--cluster business--><g class="cluster" data-qualified-name="business" data-source-line="39" id="ent0002"><rect fill="#F3E5F5" filter="url(#f1npuduiripj15)" height="121.97" rx="2.5" ry="2.5" style="stroke:#90A4AE;stroke-width:1;" width="413" x="686" y="61.7578"/><text fill="#000000" font-family="'Microsoft YaHei,Arial,sans-serif'" font-size="12" font-style="italic" lengthAdjust="spacing" textLength="75" x="855" y="74.8965">&#171;Rectangle&#187;</text><text fill="#000000" font-family="'Microsoft YaHei,Arial,sans-serif'" font-size="12" font-weight="700" lengthAdjust="spacing" textLength="96.0007" x="844.4996" y="88.8652">&#19994;&#21153;&#23618;&#65288;&#35843;&#29992;&#26041;&#65289;</text></g><!--cluster chatPkg--><g class="cluster" data-qualified-name="chatPkg" data-source-line="46" id="ent0006"><rect fill="#E3F2FD" filter="url(#f1npuduiripj15)" height="432.56" rx="2.5" ry="2.5" style="stroke:#90A4AE;stroke-width:1;" width="564" x="7" y="215.7278"/><text fill="#000000" font-family="'Microsoft YaHei,Arial,sans-serif'" font-size="12" font-weight="700" lengthAdjust="spacing" textLength="71.3616" x="253.3192" y="228.8665">Chat &#23376;&#31995;&#32479;</text></g><!--cluster embPkg--><g class="cluster" data-qualified-name="embPkg" data-source-line="56" id="ent0013"><rect fill="#E3F2FD" filter="url(#f1npuduiripj15)" height="432.56" rx="2.5" ry="2.5" style="stroke:#90A4AE;stroke-width:1;" width="462" x="595" y="215.7278"/><text fill="#000000" font-family="'Microsoft YaHei,Arial,sans-serif'" font-size="12" font-weight="700" lengthAdjust="spacing" textLength="116.0335" x="767.9833" y="228.8665">Embedding &#23376;&#31995;&#32479;</text></g><!--cluster rerankPkg--><g class="cluster" data-qualified-name="rerankPkg" data-source-line="65" id="ent0019"><rect fill="#E3F2FD" filter="url(#f1npuduiripj15)" height="432.56" rx="2.5" ry="2.5" style="stroke:#90A4AE;stroke-width:1;" width="377" x="1707" y="215.7278"/><text fill="#000000" font-family="'Microsoft YaHei,Arial,sans-serif'" font-size="12" font-weight="700" lengthAdjust="spacing" textLength="88.096" x="1851.452" y="228.8665">Rerank &#23376;&#31995;&#32479;</text></g><!--cluster routing--><g class="cluster" data-qualified-name="routing" data-source-line="74" id="ent0025"><rect fill="#E8F5E9" filter="url(#f1npuduiripj15)" height="119.61" rx="2.5" ry="2.5" style="stroke:#90A4AE;stroke-width:1;" width="586" x="1089" y="542.4978"/><text fill="#000000" font-family="'Microsoft YaHei,Arial,sans-serif'" font-size="12" font-weight="700" lengthAdjust="spacing" textLength="129.7682" x="1317.1159" y="555.6365">&#36335;&#30001;&#26680;&#24515;&#65288;model &#21253;&#65289;</text></g><!--cluster infra--><g class="cluster" data-qualified-name="infra" data-source-line="81" id="ent0029"><rect fill="#FFF3E0" filter="url(#f1npuduiripj15)" height="219.22" rx="2.5" ry="2.5" style="stroke:#90A4AE;stroke-width:1;" width="377" x="226" y="789.3278"/><text fill="#000000" font-family="'Microsoft YaHei,Arial,sans-serif'" font-size="12" font-weight="700" lengthAdjust="spacing" textLength="48.0004" x="390.4998" y="802.4665">&#22522;&#30784;&#35774;&#26045;</text></g><!--entity chatBiz--><g class="entity" data-qualified-name="business.chatBiz" data-source-line="40" id="ent0003"><rect fill="#CE93D8" filter="url(#f1npuduiripj15)" height="43.9688" rx="2.5" ry="2.5" style="stroke:#1565C0;stroke-width:2;" width="88.0004" x="710" y="115.7578"/><rect fill="#CE93D8" height="10" style="stroke:#1565C0;stroke-width:2;" width="15" x="778.0004" y="120.7578"/><rect fill="#CE93D8" height="2" style="stroke:#1565C0;stroke-width:2;" width="4" x="776.0004" y="122.7578"/><rect fill="#CE93D8" height="2" style="stroke:#1565C0;stroke-width:2;" width="4" x="776.0004" y="126.7578"/><text fill="#0D47A1" font-family="'Microsoft YaHei,Arial,sans-serif'" font-size="12" lengthAdjust="spacing" textLength="48.0004" x="725" y="146.8965">&#23545;&#35805;&#26381;&#21153;</text></g><!--entity searchBiz--><g class="entity" data-qualified-name="business.searchBiz" data-source-line="41" id="ent0004"><rect fill="#CE93D8" filter="url(#f1npuduiripj15)" height="43.9688" rx="2.5" ry="2.5" style="stroke:#1565C0;stroke-width:2;" width="100.0005" x="956" y="115.7578"/><rect fill="#CE93D8" height="10" style="stroke:#1565C0;stroke-width:2;" width="15" x="1036.0005" y="120.7578"/><rect fill="#CE93D8" height="2" style="stroke:#1565C0;stroke-width:2;" width="4" x="1034.0005" y="122.7578"/><rect fill="#CE93D8" height="2" style="stroke:#1565C0;stroke-width:2;" width="4" x="1034.0005" y="126.7578"/><text fill="#0D47A1" font-family="'Microsoft YaHei,Arial,sans-serif'" font-size="12" lengthAdjust="spacing" textLength="60.0005" x="971" y="146.8965">&#30693;&#35782;&#24211;&#26816;&#32034;</text></g><!--entity ingestBiz--><g class="entity" data-qualified-name="business.ingestBiz" data-source-line="42" id="ent0005"><rect fill="#CE93D8" filter="url(#f1npuduiripj15)" height="43.9688" rx="2.5" ry="2.5" style="stroke:#1565C0;stroke-width:2;" width="88.0004" x="833" y="115.7578"/><rect fill="#CE93D8" height="10" style="stroke:#1565C0;stroke-width:2;" width="15" x="901.0004" y="120.7578"/><rect fill="#CE93D8" height="2" style="stroke:#1565C0;stroke-width:2;" width="4" x="899.0004" y="122.7578"/><rect fill="#CE93D8" height="2" style="stroke:#1565C0;stroke-width:2;" width="4" x="899.0004" y="126.7578"/><text fill="#0D47A1" font-family="'Microsoft YaHei,Arial,sans-serif'" font-size="12" lengthAdjust="spacing" textLength="48.0004" x="848" y="146.8965">&#25991;&#26723;&#20837;&#24211;</text></g><!--entity llmSvc--><g class="entity" data-qualified-name="chatPkg.llmSvc" data-source-line="47" id="ent0007"><ellipse cx="495" cy="273.7278" fill="#90CAF9" filter="url(#f1npuduiripj15)" rx="8" ry="8" style="stroke:#181818;stroke-width:0.5;"/><text fill="#000000" font-family="'Microsoft YaHei,Arial,sans-serif'" font-size="12" lengthAdjust="spacing" textLength="68.0742" x="460.9629" y="301.8665">LLMService</text></g><!--entity routingLLM--><g class="entity" data-qualified-name="chatPkg.routingLLM" data-source-line="48" id="ent0008"><rect fill="#BBDEFB" filter="url(#f1npuduiripj15)" height="43.9688" rx="2.5" ry="2.5" style="stroke:#1565C0;stroke-width:2;" width="154.6211" x="400.69" y="359.7278"/><rect fill="#BBDEFB" height="10" style="stroke:#1565C0;stroke-width:2;" width="15" x="535.3111" y="364.7278"/><rect fill="#BBDEFB" height="2" style="stroke:#1565C0;stroke-width:2;" width="4" x="533.3111" y="366.7278"/><rect fill="#BBDEFB" height="2" style="stroke:#1565C0;stroke-width:2;" width="4" x="533.3111" y="370.7278"/><text fill="#0D47A1" font-family="'Microsoft YaHei,Arial,sans-serif'" font-size="12" lengthAdjust="spacing" textLength="114.6211" x="415.69" y="390.8665">RoutingLLMService</text></g><!--entity chatClient--><g class="entity" data-qualified-name="chatPkg.chatClient" data-source-line="49" id="ent0009"><ellipse cx="364" cy="489.6978" fill="#90CAF9" filter="url(#f1npuduiripj15)" rx="8" ry="8" style="stroke:#181818;stroke-width:0.5;"/><text fill="#000000" font-family="'Microsoft YaHei,Arial,sans-serif'" font-size="12" lengthAdjust="spacing" textLength="62.7832" x="332.6084" y="517.8365">ChatClient</text></g><!--entity blChat--><g class="entity" data-qualified-name="chatPkg.blChat" data-source-line="50" id="ent0010"><rect fill="#E3F2FD" filter="url(#f1npuduiripj15)" height="43.9688" rx="2.5" ry="2.5" style="stroke:#1565C0;stroke-width:2;" width="146.6816" x="227.66" y="588.3178"/><rect fill="#E3F2FD" height="10" style="stroke:#1565C0;stroke-width:2;" width="15" x="354.3416" y="593.3178"/><rect fill="#E3F2FD" height="2" style="stroke:#1565C0;stroke-width:2;" width="4" x="352.3416" y="595.3178"/><rect fill="#E3F2FD" height="2" style="stroke:#1565C0;stroke-width:2;" width="4" x="352.3416" y="599.3178"/><text fill="#0D47A1" font-family="'Microsoft YaHei,Arial,sans-serif'" font-size="12" lengthAdjust="spacing" textLength="106.6816" x="242.66" y="619.4565">BaiLianChatClient</text></g><!--entity sfChat--><g class="entity" data-qualified-name="chatPkg.sfChat" data-source-line="51" id="ent0011"><rect fill="#E3F2FD" filter="url(#f1npuduiripj15)" height="43.9688" rx="2.5" ry="2.5" style="stroke:#1565C0;stroke-width:2;" width="169.3398" x="23.33" y="588.3178"/><rect fill="#E3F2FD" height="10" style="stroke:#1565C0;stroke-width:2;" width="15" x="172.6698" y="593.3178"/><rect fill="#E3F2FD" height="2" style="stroke:#1565C0;stroke-width:2;" width="4" x="170.6698" y="595.3178"/><rect fill="#E3F2FD" height="2" style="stroke:#1565C0;stroke-width:2;" width="4" x="170.6698" y="599.3178"/><text fill="#0D47A1" font-family="'Microsoft YaHei,Arial,sans-serif'" font-size="12" lengthAdjust="spacing" textLength="129.3398" x="38.33" y="619.4565">SiliconFlowChatClient</text></g><!--entity olChat--><g class="entity" data-qualified-name="chatPkg.olChat" data-source-line="52" id="ent0012"><rect fill="#E3F2FD" filter="url(#f1npuduiripj15)" height="43.9688" rx="2.5" ry="2.5" style="stroke:#1565C0;stroke-width:2;" width="145.293" x="409.35" y="588.3178"/><rect fill="#E3F2FD" height="10" style="stroke:#1565C0;stroke-width:2;" width="15" x="534.643" y="593.3178"/><rect fill="#E3F2FD" height="2" style="stroke:#1565C0;stroke-width:2;" width="4" x="532.643" y="595.3178"/><rect fill="#E3F2FD" height="2" style="stroke:#1565C0;stroke-width:2;" width="4" x="532.643" y="599.3178"/><text fill="#0D47A1" font-family="'Microsoft YaHei,Arial,sans-serif'" font-size="12" lengthAdjust="spacing" textLength="105.293" x="424.35" y="619.4565">OllamaChatClient</text></g><!--entity embSvc--><g class="entity" data-qualified-name="embPkg.embSvc" data-source-line="57" id="ent0014"><ellipse cx="942" cy="273.7278" fill="#90CAF9" filter="url(#f1npuduiripj15)" rx="8" ry="8" style="stroke:#181818;stroke-width:0.5;"/><text fill="#000000" font-family="'Microsoft YaHei,Arial,sans-serif'" font-size="12" lengthAdjust="spacing" textLength="112.4121" x="885.7939" y="301.8665">EmbeddingService</text></g><!--entity routingEmb--><g class="entity" data-qualified-name="embPkg.routingEmb" data-source-line="58" id="ent0015"><rect fill="#BBDEFB" filter="url(#f1npuduiripj15)" height="43.9688" rx="2.5" ry="2.5" style="stroke:#1565C0;stroke-width:2;" width="198.959" x="842.52" y="359.7278"/><rect fill="#BBDEFB" height="10" style="stroke:#1565C0;stroke-width:2;" width="15" x="1021.479" y="364.7278"/><rect fill="#BBDEFB" height="2" style="stroke:#1565C0;stroke-width:2;" width="4" x="1019.479" y="366.7278"/><rect fill="#BBDEFB" height="2" style="stroke:#1565C0;stroke-width:2;" width="4" x="1019.479" y="370.7278"/><text fill="#0D47A1" font-family="'Microsoft YaHei,Arial,sans-serif'" font-size="12" lengthAdjust="spacing" textLength="158.959" x="857.52" y="390.8665">RoutingEmbeddingService</text></g><!--entity embClient--><g class="entity" data-qualified-name="embPkg.embClient" data-source-line="59" id="ent0016"><ellipse cx="942" cy="489.6978" fill="#90CAF9" filter="url(#f1npuduiripj15)" rx="8" ry="8" style="stroke:#181818;stroke-width:0.5;"/><text fill="#000000" font-family="'Microsoft YaHei,Arial,sans-serif'" font-size="12" lengthAdjust="spacing" textLength="102.8027" x="890.5986" y="517.8365">EmbeddingClient</text></g><!--entity olEmb--><g class="entity" data-qualified-name="embPkg.olEmb" data-source-line="60" id="ent0017"><rect fill="#E3F2FD" filter="url(#f1npuduiripj15)" height="43.9688" rx="2.5" ry="2.5" style="stroke:#1565C0;stroke-width:2;" width="185.3125" x="855.34" y="588.3178"/><rect fill="#E3F2FD" height="10" style="stroke:#1565C0;stroke-width:2;" width="15" x="1020.6525" y="593.3178"/><rect fill="#E3F2FD" height="2" style="stroke:#1565C0;stroke-width:2;" width="4" x="1018.6525" y="595.3178"/><rect fill="#E3F2FD" height="2" style="stroke:#1565C0;stroke-width:2;" width="4" x="1018.6525" y="599.3178"/><text fill="#0D47A1" font-family="'Microsoft YaHei,Arial,sans-serif'" font-size="12" lengthAdjust="spacing" textLength="145.3125" x="870.34" y="619.4565">OllamaEmbeddingClient</text></g><!--entity sfEmb--><g class="entity" data-qualified-name="embPkg.sfEmb" data-source-line="61" id="ent0018"><rect fill="#E3F2FD" filter="url(#f1npuduiripj15)" height="43.9688" rx="2.5" ry="2.5" style="stroke:#1565C0;stroke-width:2;" width="209.3594" x="611.32" y="588.3178"/><rect fill="#E3F2FD" height="10" style="stroke:#1565C0;stroke-width:2;" width="15" x="800.6794" y="593.3178"/><rect fill="#E3F2FD" height="2" style="stroke:#1565C0;stroke-width:2;" width="4" x="798.6794" y="595.3178"/><rect fill="#E3F2FD" height="2" style="stroke:#1565C0;stroke-width:2;" width="4" x="798.6794" y="599.3178"/><text fill="#0D47A1" font-family="'Microsoft YaHei,Arial,sans-serif'" font-size="12" lengthAdjust="spacing" textLength="169.3594" x="626.32" y="619.4565">SiliconFlowEmbeddingClient</text></g><!--entity rerankSvc--><g class="entity" data-qualified-name="rerankPkg.rerankSvc" data-source-line="66" id="ent0020"><ellipse cx="1792" cy="273.7278" fill="#90CAF9" filter="url(#f1npuduiripj15)" rx="8" ry="8" style="stroke:#181818;stroke-width:0.5;"/><text fill="#000000" font-family="'Microsoft YaHei,Arial,sans-serif'" font-size="12" lengthAdjust="spacing" textLength="86.9121" x="1748.5439" y="301.8665">RerankService</text></g><!--entity routingRerank--><g class="entity" data-qualified-name="rerankPkg.routingRerank" data-source-line="67" id="ent0021"><rect fill="#BBDEFB" filter="url(#f1npuduiripj15)" height="43.9688" rx="2.5" ry="2.5" style="stroke:#1565C0;stroke-width:2;" width="173.459" x="1723.27" y="359.7278"/><rect fill="#BBDEFB" height="10" style="stroke:#1565C0;stroke-width:2;" width="15" x="1876.729" y="364.7278"/><rect fill="#BBDEFB" height="2" style="stroke:#1565C0;stroke-width:2;" width="4" x="1874.729" y="366.7278"/><rect fill="#BBDEFB" height="2" style="stroke:#1565C0;stroke-width:2;" width="4" x="1874.729" y="370.7278"/><text fill="#0D47A1" font-family="'Microsoft YaHei,Arial,sans-serif'" font-size="12" lengthAdjust="spacing" textLength="133.459" x="1738.27" y="390.8665">RoutingRerankService</text></g><!--entity rerankClient--><g class="entity" data-qualified-name="rerankPkg.rerankClient" data-source-line="68" id="ent0022"><ellipse cx="1810" cy="489.6978" fill="#90CAF9" filter="url(#f1npuduiripj15)" rx="8" ry="8" style="stroke:#181818;stroke-width:0.5;"/><text fill="#000000" font-family="'Microsoft YaHei,Arial,sans-serif'" font-size="12" lengthAdjust="spacing" textLength="77.3027" x="1771.3486" y="517.8365">RerankClient</text></g><!--entity blRerank--><g class="entity" data-qualified-name="rerankPkg.blRerank" data-source-line="69" id="ent0023"><rect fill="#E3F2FD" filter="url(#f1npuduiripj15)" height="43.9688" rx="2.5" ry="2.5" style="stroke:#1565C0;stroke-width:2;" width="161.2012" x="1723.4" y="588.3178"/><rect fill="#E3F2FD" height="10" style="stroke:#1565C0;stroke-width:2;" width="15" x="1864.6012" y="593.3178"/><rect fill="#E3F2FD" height="2" style="stroke:#1565C0;stroke-width:2;" width="4" x="1862.6012" y="595.3178"/><rect fill="#E3F2FD" height="2" style="stroke:#1565C0;stroke-width:2;" width="4" x="1862.6012" y="599.3178"/><text fill="#0D47A1" font-family="'Microsoft YaHei,Arial,sans-serif'" font-size="12" lengthAdjust="spacing" textLength="121.2012" x="1738.4" y="619.4565">BaiLianRerankClient</text></g><!--entity noopRerank--><g class="entity" data-qualified-name="rerankPkg.noopRerank" data-source-line="70" id="ent0024"><rect fill="#ECEFF1" filter="url(#f1npuduiripj15)" height="43.9688" rx="2.5" ry="2.5" style="stroke:#1565C0;stroke-width:2;" width="148.5801" x="1919.71" y="588.3178"/><rect fill="#ECEFF1" height="10" style="stroke:#1565C0;stroke-width:2;" width="15" x="2048.2901" y="593.3178"/><rect fill="#ECEFF1" height="2" style="stroke:#1565C0;stroke-width:2;" width="4" x="2046.2901" y="595.3178"/><rect fill="#ECEFF1" height="2" style="stroke:#1565C0;stroke-width:2;" width="4" x="2046.2901" y="599.3178"/><text fill="#0D47A1" font-family="'Microsoft YaHei,Arial,sans-serif'" font-size="12" lengthAdjust="spacing" textLength="108.5801" x="1934.71" y="619.4565">NoopRerankClient</text></g><!--entity selector--><g class="entity" data-qualified-name="routing.selector" data-source-line="75" id="ent0026"><rect fill="#A5D6A7" filter="url(#f1npuduiripj15)" height="55.6094" rx="2.5" ry="2.5" style="stroke:#1565C0;stroke-width:2;" width="125.3242" x="1506.34" y="582.4978"/><rect fill="#A5D6A7" height="10" style="stroke:#1565C0;stroke-width:2;" width="15" x="1611.6642" y="587.4978"/><rect fill="#A5D6A7" height="2" style="stroke:#1565C0;stroke-width:2;" width="4" x="1609.6642" y="589.4978"/><rect fill="#A5D6A7" height="2" style="stroke:#1565C0;stroke-width:2;" width="4" x="1609.6642" y="593.4978"/><text fill="#0D47A1" font-family="'Microsoft YaHei,Arial,sans-serif'" font-size="12" lengthAdjust="spacing" textLength="85.3242" x="1521.34" y="613.6365">ModelSelector</text><text fill="#0D47A1" font-family="'Microsoft YaHei,Arial,sans-serif'" font-size="10" lengthAdjust="spacing" textLength="59.9999" x="1521.34" y="625.7488">&#20505;&#36873;&#27169;&#22411;&#25490;&#24207;</text></g><!--entity health--><g class="entity" data-qualified-name="routing.health" data-source-line="76" id="ent0027"><rect fill="#A5D6A7" filter="url(#f1npuduiripj15)" height="55.6094" rx="2.5" ry="2.5" style="stroke:#1565C0;stroke-width:2;" width="147.4141" x="1324.29" y="582.4978"/><rect fill="#A5D6A7" height="10" style="stroke:#1565C0;stroke-width:2;" width="15" x="1451.7041" y="587.4978"/><rect fill="#A5D6A7" height="2" style="stroke:#1565C0;stroke-width:2;" width="4" x="1449.7041" y="589.4978"/><rect fill="#A5D6A7" height="2" style="stroke:#1565C0;stroke-width:2;" width="4" x="1449.7041" y="593.4978"/><text fill="#0D47A1" font-family="'Microsoft YaHei,Arial,sans-serif'" font-size="12" lengthAdjust="spacing" textLength="107.4141" x="1339.29" y="613.6365">ModelHealthStore</text><text fill="#0D47A1" font-family="'Microsoft YaHei,Arial,sans-serif'" font-size="10" lengthAdjust="spacing" textLength="59.9999" x="1339.29" y="625.7488">&#20581;&#24247;&#29366;&#24577;&#32500;&#25252;</text></g><!--entity executor--><g class="entity" data-qualified-name="routing.executor" data-source-line="77" id="ent0028"><rect fill="#A5D6A7" filter="url(#f1npuduiripj15)" height="55.6094" rx="2.5" ry="2.5" style="stroke:#1565C0;stroke-width:2;" width="175.8262" x="1113.09" y="582.4978"/><rect fill="#A5D6A7" height="10" style="stroke:#1565C0;stroke-width:2;" width="15" x="1268.9162" y="587.4978"/><rect fill="#A5D6A7" height="2" style="stroke:#1565C0;stroke-width:2;" width="4" x="1266.9162" y="589.4978"/><rect fill="#A5D6A7" height="2" style="stroke:#1565C0;stroke-width:2;" width="4" x="1266.9162" y="593.4978"/><text fill="#0D47A1" font-family="'Microsoft YaHei,Arial,sans-serif'" font-size="12" lengthAdjust="spacing" textLength="135.8262" x="1128.09" y="613.6365">ModelRoutingExecutor</text><text fill="#0D47A1" font-family="'Microsoft YaHei,Arial,sans-serif'" font-size="10" lengthAdjust="spacing" textLength="74.7362" x="1128.09" y="625.7488">&#29076;&#26029; + &#25925;&#38556;&#36716;&#31227;</text></g><!--entity props--><g class="entity" data-qualified-name="infra.props" data-source-line="82" id="ent0030"><rect fill="#FFE0B2" filter="url(#f1npuduiripj15)" height="55.6094" rx="2.5" ry="2.5" style="stroke:#1565C0;stroke-width:2;" width="148.8965" x="438.55" y="936.9378"/><rect fill="#FFE0B2" height="10" style="stroke:#1565C0;stroke-width:2;" width="15" x="567.4465" y="941.9378"/><rect fill="#FFE0B2" height="2" style="stroke:#1565C0;stroke-width:2;" width="4" x="565.4465" y="943.9378"/><rect fill="#FFE0B2" height="2" style="stroke:#1565C0;stroke-width:2;" width="4" x="565.4465" y="947.9378"/><text fill="#0D47A1" font-family="'Microsoft YaHei,Arial,sans-serif'" font-size="12" lengthAdjust="spacing" textLength="108.8965" x="453.55" y="968.0765">AIModelProperties</text><text fill="#0D47A1" font-family="'Microsoft YaHei,Arial,sans-serif'" font-size="10" lengthAdjust="spacing" textLength="70.3271" x="453.55" y="980.1888">YAML &#37197;&#32622;&#26144;&#23556;</text></g><!--entity urlResolver--><g class="entity" data-qualified-name="infra.urlResolver" data-source-line="83" id="ent0031"><rect fill="#FFE0B2" filter="url(#f1npuduiripj15)" height="55.6094" rx="2.5" ry="2.5" style="stroke:#1565C0;stroke-width:2;" width="145.1465" x="441.43" y="821.3278"/><rect fill="#FFE0B2" height="10" style="stroke:#1565C0;stroke-width:2;" width="15" x="566.5765" y="826.3278"/><rect fill="#FFE0B2" height="2" style="stroke:#1565C0;stroke-width:2;" width="4" x="564.5765" y="828.3278"/><rect fill="#FFE0B2" height="2" style="stroke:#1565C0;stroke-width:2;" width="4" x="564.5765" y="832.3278"/><text fill="#0D47A1" font-family="'Microsoft YaHei,Arial,sans-serif'" font-size="12" lengthAdjust="spacing" textLength="105.1465" x="456.43" y="852.4665">ModelUrlResolver</text><text fill="#0D47A1" font-family="'Microsoft YaHei,Arial,sans-serif'" font-size="10" lengthAdjust="spacing" textLength="43.0175" x="456.43" y="864.5788">URL &#25340;&#25509;</text></g><!--entity httpHelper--><g class="entity" data-qualified-name="infra.httpHelper" data-source-line="84" id="ent0032"><rect fill="#FFE0B2" filter="url(#f1npuduiripj15)" height="55.6094" rx="2.5" ry="2.5" style="stroke:#1565C0;stroke-width:2;" width="163.8965" x="242.05" y="821.3278"/><rect fill="#FFE0B2" height="10" style="stroke:#1565C0;stroke-width:2;" width="15" x="385.9465" y="826.3278"/><rect fill="#FFE0B2" height="2" style="stroke:#1565C0;stroke-width:2;" width="4" x="383.9465" y="828.3278"/><rect fill="#FFE0B2" height="2" style="stroke:#1565C0;stroke-width:2;" width="4" x="383.9465" y="832.3278"/><text fill="#0D47A1" font-family="'Microsoft YaHei,Arial,sans-serif'" font-size="12" lengthAdjust="spacing" textLength="123.8965" x="257.05" y="852.4665">HttpResponseHelper</text><text fill="#0D47A1" font-family="'Microsoft YaHei,Arial,sans-serif'" font-size="10" lengthAdjust="spacing" textLength="39.9999" x="257.05" y="864.5788">&#21709;&#24212;&#35299;&#26512;</text></g><g class="entity" data-qualified-name="GMN67" data-source-line="140" id="ent0068"><path d="M2103.24,575.6978 L2103.24,644.9166 L2272.7507,644.9166 L2272.7507,585.6978 L2262.7507,575.6978 L2103.24,575.6978" fill="#E8F5E9" filter="url(#f1npuduiripj15)" style="stroke:#F9A825;stroke-width:0.5;"/><path d="M2262.7507,575.6978 L2262.7507,585.6978 L2272.7507,585.6978 L2262.7507,575.6978" fill="#E8F5E9" style="stroke:#F9A825;stroke-width:1;"/><text fill="#5D4037" font-family="'Microsoft YaHei,Arial,sans-serif'" font-size="11" font-weight="700" lengthAdjust="spacing" textLength="65.9995" x="2109.24" y="590.9083">&#20849;&#20139;&#36335;&#30001;&#26680;&#24515;</text><line style="stroke:#F9A825;stroke-width:1;stroke-dasharray:1,2;" x1="2104.24" x2="2271.7507" y1="593.5025" y2="593.5025"/><text fill="#5D4037" font-family="'Microsoft YaHei,Arial,sans-serif'" font-size="11" lengthAdjust="spacing" textLength="148.5107" x="2109.24" y="607.7129">Chat / Embedding / Rerank</text><text fill="#5D4037" font-family="'Microsoft YaHei,Arial,sans-serif'" font-size="11" lengthAdjust="spacing" textLength="98.9993" x="2109.24" y="620.5176">&#19977;&#31181;&#33021;&#21147;&#20849;&#29992;&#21516;&#19968;&#22871;</text><text fill="#5D4037" font-family="'Microsoft YaHei,Arial,sans-serif'" font-size="11" lengthAdjust="spacing" textLength="120.4193" x="2109.24" y="633.3223">&#36335;&#30001; + &#29076;&#26029; + &#36716;&#31227;&#26426;&#21046;</text></g><g class="entity" data-qualified-name="GMN70" data-source-line="148" id="ent0071"><path d="M1928.5,704.9178 L1928.5,761.3319 A0,0 0 0 0 1928.5,761.3319 L2059.4992,761.3319 A0,0 0 0 0 2059.4992,761.3319 L2059.4992,714.9178 L2049.4992,704.9178 L1998,704.9178 L1994,632.5478 L1990,704.9178 L1928.5,704.9178 A0,0 0 0 0 1928.5,704.9178" fill="#ECEFF1" filter="url(#f1npuduiripj15)" style="stroke:#F9A825;stroke-width:0.5;"/><path d="M2049.4992,704.9178 L2049.4992,714.9178 L2059.4992,714.9178 L2049.4992,704.9178" fill="#ECEFF1" style="stroke:#F9A825;stroke-width:0.5;"/><text fill="#5D4037" font-family="'Microsoft YaHei,Arial,sans-serif'" font-size="11" font-weight="700" lengthAdjust="spacing" textLength="54.9996" x="1934.5" y="720.1283">&#31354;&#23545;&#35937;&#27169;&#24335;</text><line style="stroke:#F9A825;stroke-width:1;stroke-dasharray:1,2;" x1="1929.5" x2="2058.4992" y1="722.7225" y2="722.7225"/><text fill="#5D4037" font-family="'Microsoft YaHei,Arial,sans-serif'" font-size="11" lengthAdjust="spacing" textLength="101.2985" x="1934.5" y="736.9329">&#26410;&#37197;&#32622; Reranker &#26102;</text><text fill="#5D4037" font-family="'Microsoft YaHei,Arial,sans-serif'" font-size="11" lengthAdjust="spacing" textLength="109.9992" x="1934.5" y="749.7376">&#30452;&#25509;&#25130;&#26029;&#36820;&#22238;&#65292;&#19981;&#25253;&#38169;</text></g><g class="entity" data-qualified-name="GMN73" data-source-line="155" id="ent0074"><path d="M1126.5,109.5378 L1126.5,165.9519 L1235.4994,165.9519 L1235.4994,119.5378 L1225.4994,109.5378 L1126.5,109.5378" fill="#F3E5F5" filter="url(#f1npuduiripj15)" style="stroke:#F9A825;stroke-width:0.5;"/><path d="M1225.4994,109.5378 L1225.4994,119.5378 L1235.4994,119.5378 L1225.4994,109.5378" fill="#F3E5F5" style="stroke:#F9A825;stroke-width:1;"/><text fill="#5D4037" font-family="'Microsoft YaHei,Arial,sans-serif'" font-size="11" font-weight="700" lengthAdjust="spacing" textLength="32.9998" x="1132.5" y="124.7483">&#38646;&#32806;&#21512;</text><line style="stroke:#F9A825;stroke-width:1;stroke-dasharray:1,2;" x1="1127.5" x2="1234.4994" y1="127.3425" y2="127.3425"/><text fill="#5D4037" font-family="'Microsoft YaHei,Arial,sans-serif'" font-size="11" lengthAdjust="spacing" textLength="87.9994" x="1132.5" y="141.5529">&#19994;&#21153;&#23618;&#20165;&#20381;&#36182;&#25509;&#21475;</text><text fill="#5D4037" font-family="'Microsoft YaHei,Arial,sans-serif'" font-size="11" lengthAdjust="spacing" textLength="87.9994" x="1132.5" y="154.3576">&#19981;&#24863;&#30693;&#20855;&#20307;&#20379;&#24212;&#21830;</text></g><!--link chatBiz to llmSvc--><g class="link" data-entity-1="ent0003" data-entity-2="ent0007" data-link-type="dependency" data-source-line="88" id="lnk33"><path d="M709.77,138.5478 C635.8,138.5478 495,138.5478 495,138.5478 C495,138.5478 495,228.7878 495,258.8578" fill="none" id="chatBiz-to-llmSvc" style="stroke:#546E7A;stroke-width:1.5;"/><polygon fill="#546E7A" points="495,264.8578,499,255.8578,495,259.8578,491,255.8578,495,264.8578" style="stroke:#546E7A;stroke-width:1.5;"/></g><!--link searchBiz to embSvc--><g class="link" data-entity-1="ent0004" data-entity-2="ent0014" data-link-type="dependency" data-source-line="89" id="lnk34"><path d="M981,160.1978 C981,198.2178 981,265.3978 981,267.6778" fill="none" id="searchBiz-to-embSvc" style="stroke:#546E7A;stroke-width:1.5;"/><polygon fill="#546E7A" points="981,273.6778,985,264.6778,981,268.6778,977,264.6778,981,273.6778" style="stroke:#546E7A;stroke-width:1.5;"/></g><!--link searchBiz to rerankSvc--><g class="link" data-entity-1="ent0004" data-entity-2="ent0020" data-link-type="dependency" data-source-line="90" id="lnk35"><path d="M1048.74,160.0278 C1048.74,198.7978 1048.74,274.5478 1048.74,274.5478 C1048.74,274.5478 1693.28,274.5478 1777.14,274.5478" fill="none" id="searchBiz-to-rerankSvc" style="stroke:#546E7A;stroke-width:1.5;"/><polygon fill="#546E7A" points="1783.14,274.5478,1774.14,270.5478,1778.14,274.5478,1774.14,278.5478,1783.14,274.5478" style="stroke:#546E7A;stroke-width:1.5;"/></g><!--link ingestBiz to embSvc--><g class="link" data-entity-1="ent0005" data-entity-2="ent0014" data-link-type="dependency" data-source-line="91" id="lnk36"><path d="M899.5,160.1978 C899.5,198.2178 899.5,265.3978 899.5,267.6778" fill="none" id="ingestBiz-to-embSvc" style="stroke:#546E7A;stroke-width:1.5;"/><polygon fill="#546E7A" points="899.5,273.6778,903.5,264.6778,899.5,268.6778,895.5,264.6778,899.5,273.6778" style="stroke:#546E7A;stroke-width:1.5;"/></g><!--reverse link llmSvc to routingLLM--><g class="link" data-entity-1="ent0007" data-entity-2="ent0008" data-link-type="extension" data-source-line="94" id="lnk37"><path d="M495,300.5678 C495,317.1878 495,335.5678 495,359.3378" fill="none" id="llmSvc-backto-routingLLM" style="stroke:#546E7A;stroke-width:1.5;stroke-dasharray:7,7;"/><polygon fill="none" points="495,282.5678,489,300.5678,501,300.5678,495,282.5678" style="stroke:#546E7A;stroke-width:1.5;"/><text fill="#000000" font-family="'Microsoft YaHei,Arial,sans-serif'" font-size="12" lengthAdjust="spacing" textLength="70.9922" x="424" y="318.0865">implements</text></g><!--reverse link embSvc to routingEmb--><g class="link" data-entity-1="ent0014" data-entity-2="ent0015" data-link-type="extension" data-source-line="95" id="lnk38"><path d="M942,300.5678 C942,317.1878 942,335.5678 942,359.3378" fill="none" id="embSvc-backto-routingEmb" style="stroke:#546E7A;stroke-width:1.5;stroke-dasharray:7,7;"/><polygon fill="none" points="942,282.5678,936,300.5678,948,300.5678,942,282.5678" style="stroke:#546E7A;stroke-width:1.5;"/><text fill="#000000" font-family="'Microsoft YaHei,Arial,sans-serif'" font-size="12" lengthAdjust="spacing" textLength="70.9922" x="871" y="318.0865">implements</text></g><!--reverse link rerankSvc to routingRerank--><g class="link" data-entity-1="ent0020" data-entity-2="ent0021" data-link-type="extension" data-source-line="96" id="lnk39"><path d="M1792,300.5678 C1792,317.1878 1792,335.5678 1792,359.3378" fill="none" id="rerankSvc-backto-routingRerank" style="stroke:#546E7A;stroke-width:1.5;stroke-dasharray:7,7;"/><polygon fill="none" points="1792,282.5678,1786,300.5678,1798,300.5678,1792,282.5678" style="stroke:#546E7A;stroke-width:1.5;"/><text fill="#000000" font-family="'Microsoft YaHei,Arial,sans-serif'" font-size="12" lengthAdjust="spacing" textLength="70.9922" x="1721" y="318.0865">implements</text></g><!--link routingLLM to selector--><g class="link" data-entity-1="ent0008" data-entity-2="ent0026" data-link-type="dependency" data-source-line="99" id="lnk40"><path d="M506.22,404.1378 C506.22,414.4978 506.22,424.5478 506.22,424.5478 C506.22,424.5478 1537.67,424.5478 1537.67,424.5478 C1537.67,424.5478 1537.67,524.1278 1537.67,576.0978" fill="none" id="routingLLM-to-selector" style="stroke:#546E7A;stroke-width:1.5;"/><polygon fill="#546E7A" points="1537.67,582.0978,1541.67,573.0978,1537.67,577.0978,1533.67,573.0978,1537.67,582.0978" style="stroke:#546E7A;stroke-width:1.5;"/></g><!--link routingLLM to executor--><g class="link" data-entity-1="ent0008" data-entity-2="ent0028" data-link-type="dependency" data-source-line="100" id="lnk41"><path d="M457.78,404.0378 C457.78,422.1078 457.78,444.5478 457.78,444.5478 C457.78,444.5478 1117.56,444.5478 1117.56,444.5478 C1117.56,444.5478 1117.56,528.8978 1117.56,576.1878" fill="none" id="routingLLM-to-executor" style="stroke:#546E7A;stroke-width:1.5;"/><polygon fill="#546E7A" points="1117.56,582.1878,1121.56,573.1878,1117.56,577.1878,1113.56,573.1878,1117.56,582.1878" style="stroke:#546E7A;stroke-width:1.5;"/></g><!--link routingEmb to selector--><g class="link" data-entity-1="ent0015" data-entity-2="ent0026" data-link-type="dependency" data-source-line="101" id="lnk42"><path d="M1041.7,368.5478 C1218.6,368.5478 1569,368.5478 1569,368.5478 C1569,368.5478 1569,512.3278 1569,576.0978" fill="none" id="routingEmb-to-selector" style="stroke:#546E7A;stroke-width:1.5;"/><polygon fill="#546E7A" points="1569,582.0978,1573,573.0978,1569,577.0978,1565,573.0978,1569,582.0978" style="stroke:#546E7A;stroke-width:1.5;"/></g><!--link routingEmb to executor--><g class="link" data-entity-1="ent0015" data-entity-2="ent0028" data-link-type="dependency" data-source-line="102" id="lnk43"><path d="M1041.76,386.5478 C1083.29,386.5478 1122.03,386.5478 1122.03,386.5478 C1122.03,386.5478 1122.03,516.4378 1122.03,576.4178" fill="none" id="routingEmb-to-executor" style="stroke:#546E7A;stroke-width:1.5;"/><polygon fill="#546E7A" points="1122.03,582.4178,1126.03,573.4178,1122.03,577.4178,1118.03,573.4178,1122.03,582.4178" style="stroke:#546E7A;stroke-width:1.5;"/></g><!--link routingRerank to selector--><g class="link" data-entity-1="ent0021" data-entity-2="ent0026" data-link-type="dependency" data-source-line="103" id="lnk44"><path d="M1722.9,395.5478 C1665.3,395.5478 1600.33,395.5478 1600.33,395.5478 C1600.33,395.5478 1600.33,518.0178 1600.33,576.2278" fill="none" id="routingRerank-to-selector" style="stroke:#546E7A;stroke-width:1.5;"/><polygon fill="#546E7A" points="1600.33,582.2278,1604.33,573.2278,1600.33,577.2278,1596.33,573.2278,1600.33,582.2278" style="stroke:#546E7A;stroke-width:1.5;"/></g><!--link routingRerank to executor--><g class="link" data-entity-1="ent0021" data-entity-2="ent0028" data-link-type="dependency" data-source-line="104" id="lnk45"><path d="M1722.9,377.5478 C1568.34,377.5478 1262.21,377.5478 1262.21,377.5478 C1262.21,377.5478 1262.21,514.3278 1262.21,576.2278" fill="none" id="routingRerank-to-executor" style="stroke:#546E7A;stroke-width:1.5;"/><polygon fill="#546E7A" points="1262.21,582.2278,1266.21,573.2278,1262.21,577.2278,1258.21,573.2278,1262.21,582.2278" style="stroke:#546E7A;stroke-width:1.5;"/></g><!--link executor to health--><g class="link" data-entity-1="ent0028" data-entity-2="ent0027" data-link-type="dependency" data-source-line="106" id="lnk46"><path d="M1289.13,610.5478 C1300.81,610.5478 1306.68,610.5478 1318.09,610.5478" fill="none" id="executor-to-health" style="stroke:#546E7A;stroke-width:1.5;"/><polygon fill="#546E7A" points="1324.09,610.5478,1315.09,606.5478,1319.09,610.5478,1315.09,614.5478,1324.09,610.5478" style="stroke:#546E7A;stroke-width:1.5;"/></g><!--link routingLLM to chatClient--><g class="link" data-entity-1="ent0008" data-entity-2="ent0009" data-link-type="dependency" data-source-line="109" id="lnk47"><path d="M400.23,382.5478 C379.55,382.5478 362.84,382.5478 362.84,382.5478 C362.84,382.5478 362.84,449.3378 362.84,474.9278" fill="none" id="routingLLM-to-chatClient" style="stroke:#546E7A;stroke-width:1.5;"/><polygon fill="#546E7A" points="362.84,480.9278,366.84,471.9278,362.84,475.9278,358.84,471.9278,362.84,480.9278" style="stroke:#546E7A;stroke-width:1.5;"/></g><!--link routingEmb to embClient--><g class="link" data-entity-1="ent0015" data-entity-2="ent0016" data-link-type="dependency" data-source-line="110" id="lnk48"><path d="M942,404.0878 C942,427.8078 942,458.1078 942,474.7678" fill="none" id="routingEmb-to-embClient" style="stroke:#546E7A;stroke-width:1.5;"/><polygon fill="#546E7A" points="942,480.7678,946,471.7678,942,475.7678,938,471.7678,942,480.7678" style="stroke:#546E7A;stroke-width:1.5;"/></g><!--link routingRerank to rerankClient--><g class="link" data-entity-1="ent0021" data-entity-2="ent0022" data-link-type="dependency" data-source-line="111" id="lnk49"><path d="M1810,404.0878 C1810,427.8078 1810,458.1078 1810,474.7678" fill="none" id="routingRerank-to-rerankClient" style="stroke:#546E7A;stroke-width:1.5;"/><polygon fill="#546E7A" points="1810,480.7678,1814,471.7678,1810,475.7678,1806,471.7678,1810,480.7678" style="stroke:#546E7A;stroke-width:1.5;"/></g><!--reverse link chatClient to blChat--><g class="link" data-entity-1="ent0009" data-entity-2="ent0010" data-link-type="extension" data-source-line="114" id="lnk50"><path d="M349.67,507.7878 C349.67,510.4178 349.67,553.8578 349.67,587.9678" fill="none" id="chatClient-backto-blChat" style="stroke:#546E7A;stroke-width:1.5;stroke-dasharray:7,7;"/><polygon fill="none" points="349.67,489.7878,343.67,507.7878,355.67,507.7878,349.67,489.7878" style="stroke:#546E7A;stroke-width:1.5;"/><text fill="#000000" font-family="'Microsoft YaHei,Arial,sans-serif'" font-size="12" lengthAdjust="spacing" textLength="70.9922" x="278.67" y="536.0165">implements</text></g><!--reverse link chatClient to sfChat--><g class="link" data-entity-1="ent0009" data-entity-2="ent0011" data-link-type="extension" data-source-line="115" id="lnk51"><path d="M337.19,490.5478 C292.17,490.5478 108,490.5478 108,490.5478 C108,490.5478 108,553.4278 108,588.0578" fill="none" id="chatClient-backto-sfChat" style="stroke:#546E7A;stroke-width:1.5;stroke-dasharray:7,7;"/><polygon fill="none" points="355.19,490.5478,337.19,484.5478,337.19,496.5478,355.19,490.5478" style="stroke:#546E7A;stroke-width:1.5;"/><text fill="#000000" font-family="'Microsoft YaHei,Arial,sans-serif'" font-size="12" lengthAdjust="spacing" textLength="70.9922" x="111.84" y="487.6865">implements</text></g><!--reverse link chatClient to olChat--><g class="link" data-entity-1="ent0009" data-entity-2="ent0012" data-link-type="extension" data-source-line="116" id="lnk52"><path d="M388.67,507.7878 C388.67,511.4478 388.67,610.5478 388.67,610.5478 C388.67,610.5478 397.11,610.5478 408.92,610.5478" fill="none" id="chatClient-backto-olChat" style="stroke:#546E7A;stroke-width:1.5;stroke-dasharray:7,7;"/><polygon fill="none" points="388.67,489.7878,382.67,507.7878,394.67,507.7878,388.67,489.7878" style="stroke:#546E7A;stroke-width:1.5;"/><text fill="#000000" font-family="'Microsoft YaHei,Arial,sans-serif'" font-size="12" lengthAdjust="spacing" textLength="70.9922" x="317.67" y="557.4265">implements</text></g><!--reverse link embClient to olEmb--><g class="link" data-entity-1="ent0016" data-entity-2="ent0017" data-link-type="extension" data-source-line="118" id="lnk53"><path d="M942,516.3678 C942,534.9478 942,561.0978 942,588.0578" fill="none" id="embClient-backto-olEmb" style="stroke:#546E7A;stroke-width:1.5;stroke-dasharray:7,7;"/><polygon fill="none" points="942,498.3678,936,516.3678,948,516.3678,942,498.3678" style="stroke:#546E7A;stroke-width:1.5;"/><text fill="#000000" font-family="'Microsoft YaHei,Arial,sans-serif'" font-size="12" lengthAdjust="spacing" textLength="70.9922" x="871" y="540.3565">implements</text></g><!--reverse link embClient to sfEmb--><g class="link" data-entity-1="ent0016" data-entity-2="ent0018" data-link-type="extension" data-source-line="119" id="lnk54"><path d="M915.3,490.5478 C885.78,490.5478 809.34,490.5478 809.34,490.5478 C809.34,490.5478 809.34,553.4278 809.34,588.0578" fill="none" id="embClient-backto-sfEmb" style="stroke:#546E7A;stroke-width:1.5;stroke-dasharray:7,7;"/><polygon fill="none" points="933.3,490.5478,915.3,484.5478,915.3,496.5478,933.3,490.5478" style="stroke:#546E7A;stroke-width:1.5;"/><text fill="#000000" font-family="'Microsoft YaHei,Arial,sans-serif'" font-size="12" lengthAdjust="spacing" textLength="70.9922" x="751.56" y="487.6865">implements</text></g><!--reverse link rerankClient to blRerank--><g class="link" data-entity-1="ent0022" data-entity-2="ent0023" data-link-type="extension" data-source-line="121" id="lnk55"><path d="M1810,516.3678 C1810,534.9478 1810,561.0978 1810,588.0578" fill="none" id="rerankClient-backto-blRerank" style="stroke:#546E7A;stroke-width:1.5;stroke-dasharray:7,7;"/><polygon fill="none" points="1810,498.3678,1804,516.3678,1816,516.3678,1810,498.3678" style="stroke:#546E7A;stroke-width:1.5;"/><text fill="#000000" font-family="'Microsoft YaHei,Arial,sans-serif'" font-size="12" lengthAdjust="spacing" textLength="70.9922" x="1739" y="540.3565">implements</text></g><!--reverse link rerankClient to noopRerank--><g class="link" data-entity-1="ent0022" data-entity-2="ent0024" data-link-type="extension" data-source-line="122" id="lnk56"><path d="M1836.87,490.5478 C1873.63,490.5478 1994,490.5478 1994,490.5478 C1994,490.5478 1994,553.4278 1994,588.0578" fill="none" id="rerankClient-backto-noopRerank" style="stroke:#546E7A;stroke-width:1.5;stroke-dasharray:7,7;"/><polygon fill="none" points="1818.87,490.5478,1836.87,496.5478,1836.87,484.5478,1818.87,490.5478" style="stroke:#546E7A;stroke-width:1.5;"/><text fill="#000000" font-family="'Microsoft YaHei,Arial,sans-serif'" font-size="12" lengthAdjust="spacing" textLength="70.9922" x="1884.19" y="487.6865">implements</text></g><!--link blChat to urlResolver--><g class="link" data-entity-1="ent0010" data-entity-2="ent0031" data-link-type="dependency" data-source-line="125" id="lnk57"><path d="M330.24,632.7578 C330.24,651.6278 330.24,675.5478 330.24,675.5478 C330.24,675.5478 498.04,675.5478 498.04,675.5478 C498.04,675.5478 498.04,765.6678 498.04,814.8578" fill="none" id="blChat-to-urlResolver" style="stroke:#546E7A;stroke-width:1.5;"/><polygon fill="#546E7A" points="498.04,820.8578,502.04,811.8578,498.04,815.8578,494.04,811.8578,498.04,820.8578" style="stroke:#546E7A;stroke-width:1.5;"/></g><!--link sfChat to urlResolver--><g class="link" data-entity-1="ent0011" data-entity-2="ent0031" data-link-type="dependency" data-source-line="126" id="lnk58"><path d="M136.22,632.6578 C136.22,656.3978 136.22,690.5478 136.22,690.5478 C136.22,690.5478 469.73,690.5478 469.73,690.5478 C469.73,690.5478 469.73,769.6178 469.73,815.1478" fill="none" id="sfChat-to-urlResolver" style="stroke:#546E7A;stroke-width:1.5;"/><polygon fill="#546E7A" points="469.73,821.1478,473.73,812.1478,469.73,816.1478,465.73,812.1478,469.73,821.1478" style="stroke:#546E7A;stroke-width:1.5;"/></g><!--link olChat to urlResolver--><g class="link" data-entity-1="ent0012" data-entity-2="ent0031" data-link-type="dependency" data-source-line="127" id="lnk59"><path d="M526.34,632.7778 C526.34,676.5478 526.34,767.1678 526.34,815.0678" fill="none" id="olChat-to-urlResolver" style="stroke:#546E7A;stroke-width:1.5;"/><polygon fill="#546E7A" points="526.34,821.0678,530.34,812.0678,526.34,816.0678,522.34,812.0678,526.34,821.0678" style="stroke:#546E7A;stroke-width:1.5;"/></g><!--link olEmb to urlResolver--><g class="link" data-entity-1="ent0017" data-entity-2="ent0031" data-link-type="dependency" data-source-line="128" id="lnk60"><path d="M948,632.3778 C948,690.0078 948,840.5478 948,840.5478 C948,840.5478 716.19,840.5478 592.64,840.5478" fill="none" id="olEmb-to-urlResolver" style="stroke:#546E7A;stroke-width:1.5;"/><polygon fill="#546E7A" points="586.64,840.5478,595.64,844.5478,591.64,840.5478,595.64,836.5478,586.64,840.5478" style="stroke:#546E7A;stroke-width:1.5;"/></g><!--link sfEmb to urlResolver--><g class="link" data-entity-1="ent0018" data-entity-2="ent0031" data-link-type="dependency" data-source-line="129" id="lnk61"><path d="M610.96,610.5478 C588.28,610.5478 570.94,610.5478 570.94,610.5478 C570.94,610.5478 570.94,752.3578 570.94,815.2978" fill="none" id="sfEmb-to-urlResolver" style="stroke:#546E7A;stroke-width:1.5;"/><polygon fill="#546E7A" points="570.94,821.2978,574.94,812.2978,570.94,816.2978,566.94,812.2978,570.94,821.2978" style="stroke:#546E7A;stroke-width:1.5;"/></g><!--link blRerank to urlResolver--><g class="link" data-entity-1="ent0023" data-entity-2="ent0031" data-link-type="dependency" data-source-line="130" id="lnk62"><path d="M1804,632.7778 C1804,693.8778 1804,858.5478 1804,858.5478 C1804,858.5478 865.94,858.5478 593.05,858.5478" fill="none" id="blRerank-to-urlResolver" style="stroke:#546E7A;stroke-width:1.5;"/><polygon fill="#546E7A" points="587.05,858.5478,596.05,862.5478,592.05,858.5478,596.05,854.5478,587.05,858.5478" style="stroke:#546E7A;stroke-width:1.5;"/></g><!--link blChat to httpHelper--><g class="link" data-entity-1="ent0010" data-entity-2="ent0032" data-link-type="dependency" data-source-line="132" id="lnk63"><path d="M286.15,632.7778 C286.15,676.5478 286.15,767.1678 286.15,815.0678" fill="none" id="blChat-to-httpHelper" style="stroke:#546E7A;stroke-width:1.5;"/><polygon fill="#546E7A" points="286.15,821.0678,290.15,812.0678,286.15,816.0678,282.15,812.0678,286.15,821.0678" style="stroke:#546E7A;stroke-width:1.5;"/></g><!--link sfChat to httpHelper--><g class="link" data-entity-1="ent0011" data-entity-2="ent0032" data-link-type="dependency" data-source-line="133" id="lnk64"><path d="M79.78,632.3878 C79.78,691.6078 79.78,849.5478 79.78,849.5478 C79.78,849.5478 164.76,849.5478 235.66,849.5478" fill="none" id="sfChat-to-httpHelper" style="stroke:#546E7A;stroke-width:1.5;"/><polygon fill="#546E7A" points="241.66,849.5478,232.66,845.5478,236.66,849.5478,232.66,853.5478,241.66,849.5478" style="stroke:#546E7A;stroke-width:1.5;"/></g><!--link selector to props--><g class="link" data-entity-1="ent0026" data-entity-2="ent0030" data-link-type="dependency" data-source-line="135" id="lnk65"><path d="M1569,638.4778 C1569,722.4978 1569,965.5478 1569,965.5478 C1569,965.5478 834.49,965.5478 593.68,965.5478" fill="none" id="selector-to-props" style="stroke:#546E7A;stroke-width:1.5;"/><polygon fill="#546E7A" points="587.68,965.5478,596.68,969.5478,592.68,965.5478,596.68,961.5478,587.68,965.5478" style="stroke:#546E7A;stroke-width:1.5;"/></g><!--link urlResolver to props--><g class="link" data-entity-1="ent0031" data-entity-2="ent0030" data-link-type="dependency" data-source-line="136" id="lnk66"><path d="M514,877.4178 C514,895.4678 514,912.7578 514,930.7578" fill="none" id="urlResolver-to-props" style="stroke:#546E7A;stroke-width:1.5;"/><polygon fill="#546E7A" points="514,936.7578,518,927.7578,514,931.7578,510,927.7578,514,936.7578" style="stroke:#546E7A;stroke-width:1.5;"/></g><!--link routing to GMN67--><g class="link" data-entity-1="ent0025" data-entity-2="ent0068" data-link-type="association" data-source-line="140" id="lnk69"><path d="M1675.1837,660.5478 C1675.4633,660.5478 1675.7498,660.5478 1676.0429,660.5478 C1677.2155,660.5478 1678.4955,660.5478 1679.8787,660.5478 C1682.6453,660.5478 1685.8252,660.5478 1689.3867,660.5478 C1703.6328,660.5478 1723.9844,660.5478 1748.4063,660.5478 C1797.25,660.5478 1862.375,660.5478 1927.5,660.5478 C2057.75,660.5478 2188,660.5478 2188,660.5478 C2188,660.5478 2188,653.7778 2188,645.1978" fill="none" id="routing-GMN67" style="stroke:#546E7A;stroke-width:1.5;stroke-dasharray:7,7;"/></g><!--link business to GMN73--><g class="link" data-entity-1="ent0002" data-entity-2="ent0074" data-link-type="association" data-source-line="155" id="lnk75"><path d="M1099.0323,138.5478 C1099.0741,138.5478 1099.116,138.5478 1099.158,138.5478 C1099.3262,138.5478 1099.4965,138.5478 1099.669,138.5478 C1100.0138,138.5478 1100.3672,138.5478 1100.7287,138.5478 C1101.4517,138.5478 1102.2072,138.5478 1102.9925,138.5478 C1109.275,138.5478 1117.465,138.5478 1126.17,138.5478" fill="none" id="business-GMN73" style="stroke:#546E7A;stroke-width:1.5;stroke-dasharray:7,7;"/></g><?plantuml-src ZLTVJnj747-_Jx62XpuaW8tj64Uk9TluH2L88zmyHEhBsLxZ4-TRw-wSD6aZEKrC20a19Gvf0e5GIfEcJGWg1MeWaVfHAj-TUSfNwDx_lJyslHVBE_ER-StixioEECloDKPWgg3056Td15JdIrd48G4CqcawGsSfqTOGAqm9NMVv6I09TKW8Ih3Cr3c9HhnqYQb2C3355WKaeh84hZ8Ja3sV5bY6Eoyol3WaGe4j3mI3y-nD2CAZX91ZUIZTg4601Ac2A49IHDKQuY4lWUyfWB-CbtukGe_IuuOC2IKecElXs8LODaIiVrDXYxCy54KmggzgJ4pTq7WqdWxRgnQ_MoIH6dRCpC1UD6ZzyzD8XDBHTEx_qOZ4e_4exQ4HqV_dfHiS108iIWm_mq4tDHv9_NWbib4_BpgH7XkDUHd4ngEXIDp38EpsnWW2kcwwis3H2xbuMbznmWiFnpIWn4gOULB4fYw6nrB9Gehbom8pnB10URCfltocFDthd3nHrlULzRl9aK8gEQBffhxbJKmubIngRYuEniSIeKGsrJcytxrp8Y-igaSRdSD6zs17RUs2Vmv0v-Egt6x9J-VafHrbwR7oeAMjgdCjPULTzzvRUU6DyhHv-cAjU_A7-leeEQARjVnHr1VWI_q3dSCNyiAclFkZkK1PUpzWIpuVptS_t55RRvILlpyVtny0Z0WATP7L8qycfwsDIgLmgYEv61qpC-QSvm5vv-_kpajbRH6Rr0qKAuoKOM-2mMmk4HaVy-gh6zlTdJcv_KJPQgXxF-iG4J92iT87fApSKpQtvEOsnka8VA-Xw79pYmWzYoa0-Tso-kSHpgulVhVO9drvTiQwY6QOB2z1eSmKCMPoSYeFXMji4Uhw75VDNojg5oERfXDUkjEeBc667enWhuB1J6OyHsUyJZHYMOx5DcnInjzUZZ8CEyaol0TNuFG8oQ92OF8innOHJtFekWSdbllXlkOufifu8CZjYjo4NBK0IoMj0FVUYG0TtIoi5lhkXeqZyuj1P-z985AmPRrsneOHiMD__NV7o5WG576whpCtA0WhbaaicV5fA33yR9zqUnMCuFN5lkasSAwC6IjdfZi0IGfwfTkG4a4BnC8Pby67BN2Mi-1yNqAevWFnzYA6PNCq7NQbsYZNogj3-TCTNvf98IwnLLI2790VDgqIQwO06nwZOxc4lwPEQOWyv73zHOBTGa8fkV7yj75VQpZh3vH7Z-NsabdspIfg0C1WEZP-8HqFj3e16KwgvB4Q90tVnfNrG5tOLngtrQCzPU4Nqd15n_GrQzskxs2nxkPiD2vm3hYxbcCTcXZRFfbdUQEjRZQwxpygAoU-F9D2iolWdgo_5YAva3-jwQzqhfS5L8E2n4AHe7arFJK9JfkBwibxvQTNyeUx9CKQHeYQtLmeCneO_nK17p8HSTSW6VkLwKcWF3XM7csJrkgERY-R4vA4Jv-8_ufm0d8rbrNvoI9-87HVRodhowvjmY13sJPxA_0zyE_SOu0voKjRLagjdZs4dypyKCfiRvJJbos1KMC317P1e9pMx04vL4pd6W_ZhiZlrzL77omsPdDD_Z2i6HWc6-T5m5Ph7ApYB8cKMV2zUbfvTEavnSghQjvmbxRtaflS7BBkMq-GC-B50LitCL1edNUAeDiJwH9waIRxdc2ltCPJzfqR4jYPYeHbnXtl5xnPVDq7nnTWYdYr-8D8EKqpa6JALUZ95vtBkKR7UIQxpWxnPh8tstmFkNOvICzy_vofXmBiKSvhWD3p7SK0BQEVkusvsXqHHz1v3TOb-bUFqsqdK4zdKA4rysQV7w9mKMQk0cM8woTp7MctoPuYE_90gO-eKmbzF0aHPJTCMweNUeeiqDQvD2HEzYxXQLMq4gMFhlfD0gZiRU-ujkDnKMxkTjg_amL4cnAnR1X_-4TdEK8ycaVCvnoMuL5HVRreJ8lO3fxNvEM7U6QKjvzXgJavdWDsfpLwhBBMbkVtASYNzD6QCbWMa2IXgaOpu8MZCrL_QsiptUwcziuuNdBJLDRU6atIP8Spf3pRnm9rTGzVJcN-hJQbVch9g-kVZp77HMLX-xJrtCl2pfKzRPhpfK7XT7M_s_XLNfvtExSxMEUesVduillNYb4FTD6YSdS3pvPoym3FuVRPjXt_1m00?></g></svg>